<svg height="22" viewBox="0 0 160 22" width="160" xmlns="http://www.w3.org/2000/svg" xmlns:xlink="http://www.w3.org/1999/xlink"><mask id="a" fill="#fff"><path d="m.076.046h24.509v21.954h-24.509z" fill="#fff" fill-rule="evenodd"/></mask><mask id="b" fill="#fff"><path d="m0 22h159.924v-21.954h-159.924z" fill="#fff" fill-rule="evenodd"/></mask><g fill="#1c1851" fill-rule="evenodd"><path d="m140 1v20h20v-2.88h-16.802v-6.324h10.453v-2.879h-10.453v-4.989h15.919v-2.928zm-40 20v-20h2.647l8.353 11.71 8.35-11.71h2.65v20h-3.175v-14.363l-7.827 11.096-7.801-11.104v14.371z"/><path d="m18.856 16.72c-1.68 1.5-3.864 2.246-6.55 2.246-1.343 0-2.554-.184-3.63-.558-1.08-.372-2.04-.931-2.883-1.676-1.672-1.522-2.508-3.434-2.508-5.734 0-2.316.847-4.222 2.543-5.721 1.695-1.498 3.854-2.247 6.478-2.247 2.656 0 4.83.757 6.525 2.271 1.695 1.515 2.543 3.413 2.543 5.697 0 2.318-.84 4.224-2.518 5.722m2.296-13.602c-2.289-2.047-5.237-3.072-8.846-3.072-3.561 0-6.49 1.037-8.787 3.108-2.295 2.074-3.443 4.687-3.443 7.844 0 3.16 1.148 5.78 3.443 7.868 2.297 2.09 5.226 3.134 8.787 3.134 3.577 0 6.518-1.05 8.822-3.145 2.304-2.096 3.457-4.716 3.457-7.857 0-3.204-1.146-5.83-3.433-7.88" mask="url(#a)" transform="translate(58.182)"/><path d="m39.162 21.365h3.286v-20.7h-3.286zm-18.227-17.486 1.438-2.971-3.414.005-1.416 2.966zm-10.148 12.411-7.481-15.417-3.306.001 9.987 20.586h1.606l1.688-.006" mask="url(#b)"/></g></svg>