<svg height="24" viewBox="0 0 175 24" width="175" xmlns="http://www.w3.org/2000/svg" xmlns:xlink="http://www.w3.org/1999/xlink"><mask id="a" fill="#fff"><path d="m.082.05h26.716v23.95h-26.716z" fill="#fff" fill-rule="evenodd"/></mask><mask id="b" fill="#fff"><path d="m0 24h174.317v-23.95h-174.317z" fill="#fff" fill-rule="evenodd"/></mask><g fill="#fff" fill-rule="evenodd"><path d="m152 1.6v20.8h22.4v-2.995h-18.818v-6.577h11.707v-2.994h-11.707v-5.189h17.829v-3.045zm-42.4 20.8v-20.8h2.888l9.112 12.179 9.109-12.179h2.891v20.8h-3.464v-14.938l-8.538 11.54-8.511-11.548v14.946z"/><path d="m20.553 18.24c-1.831 1.635-4.211 2.45-7.14 2.45-1.464 0-2.784-.2-3.957-.608-1.176-.406-2.223-1.016-3.142-1.83-1.822-1.66-2.733-3.745-2.733-6.254 0-2.526.923-4.606 2.771-6.241 1.848-1.634 4.201-2.451 7.062-2.451 2.894 0 5.265.826 7.112 2.477 1.847 1.652 2.772 3.724 2.772 6.215 0 2.529-.915 4.607-2.745 6.242m2.503-14.838c-2.495-2.234-5.709-3.352-9.642-3.352-3.882 0-7.075 1.131-9.578 3.39-2.502 2.264-3.754 5.115-3.754 8.559 0 3.446 1.252 6.305 3.754 8.583 2.503 2.28 5.696 3.42 9.578 3.42 3.899 0 7.104-1.145 9.615-3.432 2.512-2.287 3.769-5.144 3.769-8.57 0-3.496-1.25-6.362-3.742-8.597" mask="url(#a)" transform="translate(63.418)"/><path d="m42.686 23.307h3.582v-22.581h-3.582zm-19.867-19.075 1.567-3.241-3.721.005-1.543 3.236zm-11.061 13.539-8.154-16.818-3.604.001 10.886 22.457h1.75l1.84-.006" mask="url(#b)"/></g></svg>