<svg height="67" viewBox="0 0 67 67" width="67" xmlns="http://www.w3.org/2000/svg"><g style="fill:none;fill-rule:evenodd;stroke:#fff;stroke-linecap:round;stroke-linejoin:round;stroke-width:4.148" transform="translate(2 2)"><path d="m52.115 25.128-15.251 15.254c-1.556 1.556-3.666 2.43-5.867 2.43-2.2 0-4.31-.874-5.867-2.43l-2.934-2.934c-1.556-1.556-2.43-3.667-2.43-5.867s.874-4.311 2.43-5.867l15.254-15.252m-20.713 35.379 6.928-6.928m9.385-32.85 23.465 23.464m1.469-19.065-10.268 10.266m-5.866-5.866 10.265-10.268m-4.399-4.4 14.667 14.668m-24.933 13.2 5.866 5.865"/><path d="m60.138 39.585c1.423 1.766 2.218 3.955 2.262 6.222 0 9.165-13.93 16.593-31.111 16.593-17.182 0-31.111-7.428-31.111-16.593 0-4.355 3.147-8.32 8.296-11.28m18.666 16.466c.573 0 1.038.464 1.038 1.037m-2.074 0c0-.573.464-1.037 1.037-1.037m-.001 2.074c-.572 0-1.036-.465-1.036-1.037m2.074 0c0 .572-.465 1.037-1.037 1.037m14.519-1.037c1.874-6.679 7.676-3.576 10.37-8.297"/></g></svg>