<svg height="67" viewBox="0 0 63 67" width="63" xmlns="http://www.w3.org/2000/svg"><g style="fill:none;fill-rule:evenodd;stroke:#fff;stroke-linecap:round;stroke-linejoin:round;stroke-width:4.148" transform="translate(2 2)"><path d="m50.133 62.4v-17.325c7.82-7.245 10.403-18.542 6.506-28.465-3.896-9.923-13.475-16.444-24.135-16.432-20.752 0-24.405 17.961-32.148 37.332h8.296v8.296c0 4.582 3.714 8.297 8.296 8.297h4.148v8.297"/><path d="m27.319 27.14c0 2.292 1.857 4.149 4.148 4.149 2.29 0 4.148-1.857 4.148-4.148s-1.857-4.148-4.148-4.148-4.148 1.857-4.148 4.148z"/><path d="m27.944 11.101-1.223 4.01c-.418 1.384-1.837 2.207-3.246 1.883l-4.071-.943c-1.584-.357-3.215.36-4.025 1.767-.809 1.408-.607 3.178.499 4.367l2.851 3.072c.987 1.062.987 2.706 0 3.767l-2.851 3.072c-1.106 1.19-1.308 2.96-.499 4.367.81 1.408 2.441 2.124 4.025 1.767l4.07-.943c1.41-.324 2.829.5 3.247 1.883l1.223 4.019c.466 1.556 1.898 2.622 3.523 2.622 1.624 0 3.056-1.066 3.523-2.622l1.222-4.019c.419-1.383 1.838-2.207 3.247-1.883l4.07.943c1.584.357 3.216-.36 4.025-1.767s.607-3.178-.499-4.367l-2.85-3.072c-.988-1.061-.988-2.705 0-3.767l2.85-3.072c1.106-1.189 1.308-2.96.499-4.367-.81-1.407-2.44-2.124-4.025-1.767l-4.07.943c-1.41.324-2.828-.499-3.247-1.883l-1.222-4.01c-.467-1.556-1.899-2.622-3.523-2.622-1.625 0-3.057 1.066-3.523 2.622z"/></g></svg>