<svg height="71" viewBox="0 0 69 71" width="69" xmlns="http://www.w3.org/2000/svg"><g style="fill:none;fill-rule:evenodd;stroke:#fff;stroke-linecap:round;stroke-linejoin:round;stroke-width:4.148" transform="translate(3 3)"><path d="m40.77 44.681v-8.296c0-2.29 1.858-4.148 4.149-4.148 2.29 0 4.148 1.857 4.148 4.148v8.296"/><path d="m30.637 52.8c-2.29 0-4.148-1.857-4.148-4.148v-20.74c0-2.292 1.857-4.149 4.148-4.149h29.037c2.291 0 4.148 1.857 4.148 4.148v20.74c0 2.292-1.857 4.149-4.148 4.149h-4.148v12.444l-12.446-12.444z"/><path d="m42.44 16.099c-2.42-9.264-10.846-16.099-20.87-16.099-11.913 0-21.57 9.657-21.57 21.57 0 10.841 7.997 19.814 18.414 21.341"/><path d="m9.007 19.031c1.303-2.782 2.374-4.473 3.215-5.073 3.136-2.236 6.035-1.524 6.035-1.524m6.395 6.487c2.483-.431 4.063-1.047 4.74-1.846 1.908-2.25 1.186-4.75 1.186-4.75"/><circle cx="16.593" cy="25.6" r="1.896"/><path d="m40.77 40.533h8.297"/></g></svg>